_________________________  Visit us at _________________________
  
http://tinym.eu  ____________________________  http://p2pdl.com



Release Title: Four Brothers (2005)

					
Genre: Action | Crime | Drama
IMDb Rating: 6.8/10 
http://www.imdb.com/title/tt0430105/


Plot: Four brothers look to avenge their mother's death.  


Director:  John Singleton


Stars: Mark Wahlberg, Tyrese Gibson and Garrett Hedlund. 


Rated: R for strong violence, pervasive language and some sexual content.


General
Format                         : Matroska
Format version                 : Version 2
File size                      : 691 MiB
Duration                       : 1h 48mn
Overall bit rate               : 888 Kbps
Movie name                     : Four Brothers 2005 720p BRRip x264 AC3 - ViZNU [P2PDL]
Source                         : 1080p.BluRay.DTS.x264.RiplleyHD(Thanks)

Video
ID                             : 1
Format                         : AVC
Format/Info                    : Advanced Video Codec
Codec ID                       : V_MPEG4/ISO/AVC
Duration                       : 1h 48mn
Bit rate                       : 695 Kbps
Width                          : 1 280 pixels
Height                         : 544 pixels
Display aspect ratio           : 2.35:1
Frame rate mode                : Constant
Frame rate                     : 23.976 fps
Color space                    : YUV
Chroma subsampling             : 4:2:0
Stream size                    : 527 MiB (76%)
Writing library                : x264 core 125 r2208 d9d2288
Default                        : Yes
Forced                         : No

Audio
ID                             : 2
Format                         : AC-3
Format/Info                    : Audio Coding 3
Codec ID                       : A_AC3
Duration                       : 1h 48mn
Bit rate mode                  : Constant
Bit rate                       : 192 Kbps
Channel(s)                     : 2 channels
Channel positions              : Front: L R
Sampling rate                  : 48.0 KHz
Stream size                    : 149 MiB (22%)
Language                       : English
Default                        : Yes
Forced                         : No

Subtitle: UTF-8 English (Subtitle 1) [Default]



Screens:

 
http://www.shotpix.com/images/10613021618122910952.png 
http://www.shotpix.com/images/51819060666794004563.png 
http://www.shotpix.com/images/66563282564537915862.png 
http://www.shotpix.com/images/31377734160365819027.png 
http://www.shotpix.com/images/11176228516977452108.png 
http://www.shotpix.com/images/81374564032170056322.png


------------------------------------------------------------------------


Recommend to you to use VLC player. Install shark007 codecs in case of any kind of problem in playback (For non-VLC
Media Player users). Alternatively, install Core AVC codecs, the fastest decoder that there is coupled with Community
Center Codec Pack and play on Windows Media Player ClassicCheck sample to be sure. Enjoy!


Greets to: srkfan, Vitamin_X, MgB, staff members at ExtraTorrent, TPB,KAT, 1337x, PublicHD, Ahashare,
SilverTorrent, TorrentMafia, P2PDL, and all others.


Encoder Notes: Looking For Early Access To Anything You Can Provide DVDScr, R5, DVDRips, BluRay, Direct Audio, Early Music
Releases, Seedboxes, Links, Dedicated Servers anything u can provide, Advance / Promo CDs/DVDs. If You Got anything to
offer contact me at "contact@tinym.eu"


Facebook Fan Page: www . facebook . com / p2pdl
